<?xml version="1.0" encoding="UTF-8" standalone="no"?>
<svg
   id="Layer_1"
   data-name="Layer 1"
   viewBox="0 0 3756.09 3756.49"
   version="1.1"
   sodipodi:docname="monerosmall.svg"
   inkscape:version="1.1.2 (0a00cf5339, 2022-02-04)"
   xmlns:inkscape="http://www.inkscape.org/namespaces/inkscape"
   xmlns:sodipodi="http://sodipodi.sourceforge.net/DTD/sodipodi-0.dtd"
   xmlns="http://www.w3.org/2000/svg"
   xmlns:svg="http://www.w3.org/2000/svg"
   xmlns:rdf="http://www.w3.org/1999/02/22-rdf-syntax-ns#"
   xmlns:cc="http://creativecommons.org/ns#"
   xmlns:dc="http://purl.org/dc/elements/1.1/">
  <defs
     id="defs11" />
  <sodipodi:namedview
     id="namedview9"
     pagecolor="#505050"
     bordercolor="#ffffff"
     borderopacity="1"
     inkscape:pageshadow="0"
     inkscape:pageopacity="0"
     inkscape:pagecheckerboard="1"
     showgrid="false"
     inkscape:zoom="10.757762"
     inkscape:cx="1877.6676"
     inkscape:cy="2688.1986"
     inkscape:window-width="1708"
     inkscape:window-height="1355"
     inkscape:window-x="1724"
     inkscape:window-y="40"
     inkscape:window-maximized="0"
     inkscape:current-layer="Layer_1" />
  <title
     id="title2">monero</title>
  <path
     d="M4128,2249.81C4128,3287,3287.26,4127.86,2250,4127.86S372,3287,372,2249.81,1212.76,371.75,2250,371.75,4128,1212.54,4128,2249.81Z"
     transform="translate(-371.96 -371.75)"
     style="fill:#fff"
     id="path4" />
  <path
     id="_149931032"
     data-name=" 149931032"
     d="M2250,371.75c-1036.89,0-1879.12,842.06-1877.8,1878,0.26,207.26,33.31,406.63,95.34,593.12h561.88V1263L2250,2483.57,3470.52,1263v1579.9h562c62.12-186.48,95-385.85,95.37-593.12C4129.66,1212.76,3287,372,2250,372Z"
     transform="translate(-371.96 -371.75)"
     style="fill:#f26822" />
  <path
     id="_149931160"
     data-name=" 149931160"
     d="M1969.3,2764.17l-532.67-532.7v994.14H1029.38l-384.29.07c329.63,540.8,925.35,902.56,1604.91,902.56S3525.31,3766.4,3855,3225.6H3063.25V2231.47l-532.7,532.7-280.61,280.61-280.62-280.61h0Z"
     transform="translate(-371.96 -371.75)"
     style="fill:#4d4d4d;stroke:none;stroke-opacity:1" />
  <metadata
     id="metadata828">
    <rdf:RDF>
      <cc:Work
         rdf:about="">
        <dc:title>monero</dc:title>
      </cc:Work>
    </rdf:RDF>
  </metadata>
</svg>
